<?xml version="1.0" encoding="UTF-8" standalone="no"?>
<!-- Generator: Adobe Illustrator 18.0.0, SVG Export Plug-In . SVG Version: 6.00 Build 0)  -->

<svg
   xmlns:dc="http://purl.org/dc/elements/1.1/"
   xmlns:cc="http://creativecommons.org/ns#"
   xmlns:rdf="http://www.w3.org/1999/02/22-rdf-syntax-ns#"
   xmlns:svg="http://www.w3.org/2000/svg"
   xmlns="http://www.w3.org/2000/svg"
   xmlns:sodipodi="http://sodipodi.sourceforge.net/DTD/sodipodi-0.dtd"
   xmlns:inkscape="http://www.inkscape.org/namespaces/inkscape"
   version="1.1"
   id="Layer_1"
   x="0px"
   y="0px"
   viewBox="0 0 600 400"
   enable-background="new 0 0 612 792"
   xml:space="preserve"
   inkscape:version="0.91 r"
   sodipodi:docname="regisP.svg"
   width="600"
   height="400"><metadata
     id="metadata31"><rdf:RDF><cc:Work
         rdf:about=""><dc:format>image/svg+xml</dc:format><dc:type
           rdf:resource="http://purl.org/dc/dcmitype/StillImage" /><dc:title></dc:title></cc:Work></rdf:RDF></metadata><defs
     id="defs29" /><sodipodi:namedview
     pagecolor="#ffffff"
     bordercolor="#666666"
     borderopacity="1"
     objecttolerance="10"
     gridtolerance="10"
     guidetolerance="10"
     inkscape:pageopacity="0"
     inkscape:pageshadow="2"
     inkscape:window-width="1313"
     inkscape:window-height="744"
     id="namedview27"
     showgrid="false"
     fit-margin-top="0"
     fit-margin-left="0"
     fit-margin-right="0"
     fit-margin-bottom="0"
     inkscape:zoom="0.2979798"
     inkscape:cx="300"
     inkscape:cy="200.5"
     inkscape:window-x="53"
     inkscape:window-y="24"
     inkscape:window-maximized="1"
     inkscape:current-layer="Layer_1" /><rect
     id="XMLID_382_"
     x="0"
     y="0"
     width="600"
     height="400"
     style="fill:#fdba1f" /><g
     id="XMLID_378_"
     transform="translate(-6,-196.5)"><path
       id="XMLID_381_"
       d="m 484.2,494.3 c 0,0 0,-9.9 -9.3,-12.8 -5.9,-1.8 -13.1,2.1 -13.1,2.1 0,0 -0.3,-15 -12,-15 -13,0 -17.5,18.2 -17.5,18.2 0,0 -2.7,-4.5 -10.6,-2.1 -9.2,2.9 -12,9.6 -12,9.6 l 74.5,0 z"
       inkscape:connector-curvature="0"
       style="fill:#ffffff" /><path
       id="XMLID_380_"
       d="m 284.7,253.8 c 0,0 0,-13 -12.1,-16.8 -7.7,-2.4 -17.1,2.7 -17.1,2.7 0,0 -0.4,-19.6 -15.6,-19.6 -17,0 -22.9,23.8 -22.9,23.8 0,0 -4.4,-9.7 -14.8,-6.9 -7.6,2 -8.2,9 -8.2,9 -12.7,-0.5 -16,7.8 -16,7.8 l 106.7,0 z"
       inkscape:connector-curvature="0"
       style="fill:#ffffff" /></g><g
     id="XMLID_310_"
     transform="translate(-6,-196.5)"><path
       id="XMLID_312_"
       d="m 606,532 -277.5,0.7 C 278.4,531.5 241.9,529.3 217,518.3 129.6,479.8 106,481.4 106,481.4 l 0,115 500,0 0,-64.4 z"
       inkscape:connector-curvature="0"
       style="fill:#664140" /><path
       id="XMLID_311_"
       d="m 606,532 c 0,-3 -0.8,-1.2 -2.3,0 -1.5,2.8 -3.6,-3.5 -6.4,0 -2.7,1 -6,1.9 -9.8,0 -3.8,-4.8 -108,2.5 -112.7,0.1 -4.6,2.4 -9.6,-0.4 -14.9,0.1 -5.3,2.3 -10.8,-1.3 -16.5,0.1 -5.7,2.4 -11.5,0.3 -17.4,0.1 -5.9,-0.7 -11.8,-7.1 -17.7,0.1 -5.9,-0.8 -11.7,1.7 -17.4,0.1 -5.7,-0.6 -11.2,-8.8 -16.5,0.1 -5.3,4.5 -10.3,-1.8 -14.9,0.1 -4.6,-1.9 -8.9,0.7 -12.7,0.1 -3.8,-2 -7.1,-3.1 -9.8,0 -2.7,-1.9 -4.9,-2.2 -6.4,0 -1.5,1.3 -2.3,0.1 -2.3,0 -5,1.6 -9.9,-4.5 -14.6,-0.4 -4.7,-2 -9.3,0.4 -13.8,-0.5 -4.5,-2.7 -8.8,-3.8 -13,-0.7 -4.2,-0.4 -8.3,2.4 -12.3,-0.9 -4,6.6 -7.8,-3.7 -11.5,-1.1 -3.7,-3.8 -7.3,-0.6 -10.7,-1.4 -3.5,-5.8 -6.8,-9.6 -10,-1.7 -3.2,0.7 -6.3,-0.9 -9.3,-2.1 -3,-7.2 -5.8,3 -8.5,-2.6 -2.7,-7.8 -5.3,1.3 -7.8,-3 -8.7,-3.6 -16.8,-5.4 -24.4,-10.4 -7.5,-1.6 -14.4,-2.4 -20.8,-8.2 -6.4,0 -12.1,-6.8 -17.4,-6.3 -5.3,-4.4 -10,-3.9 -14.3,-4.7 -4.3,0.3 -8.1,0.5 -11.4,-3.3 -3.4,-1.9 -6.5,-1 -8.8,-2.1 C 98.3,473.5 6,463.8 6,463.8 l 0,132.7 600,0 c 0,0 0,-16.1 0,-32.2 0,-5.4 0,-10.7 0,-15.5 0,-4 0,-11.6 0,-11.9 0,-4.4 0,-8.2 0,-4.9 z"
       inkscape:connector-curvature="0"
       style="fill:#664140" /></g><g
     id="XMLID_1_"
     transform="translate(-6,-196.5)"><g
       id="XMLID_6_"><path
         id="XMLID_19_"
         d="m 166.4,366 c 0,0 -2.8,-3.1 -5.2,-4.1 -2.5,-1.1 -6.6,-2.8 -8.9,-6.1 -2.3,-3.4 -5.1,-6.1 -5.1,-6.1 0,0 -0.3,-6 -1.5,-8.5 -1.2,-2.5 -2.6,-3.6 -3.5,-4.7 -0.9,-1.1 -2.5,-0.9 -3,-1.8 -0.5,-0.9 -1.2,-1.2 -1.7,-0.6 -0.6,0.6 0,2.1 0,2.1 0,0 -2.2,-2.9 -4,-2.2 -1.7,0.7 -0.3,3.5 -0.3,3.5 0,0 -1.4,0 -1.9,1.1 -0.5,1.1 1.2,3.1 1.2,3.1 0,0 -1,0.2 -1.3,1.3 -0.3,1.1 0,1.6 0,1.6 0,0 -1.4,2.1 -0.8,4.6 0.6,2.5 5.7,5.8 7.7,7.2 2.1,1.4 4.1,5.1 9.6,11.7 5.5,6.6 18,18.7 23.6,18.9 4,0.1 9.6,-9.4 13.8,-19.4 l -18.7,-5.9 c 0,2.3 0,4.3 0,4.3 z"
         inkscape:connector-curvature="0"
         style="fill:#ffffff" /><path
         id="XMLID_17_"
         d="m 229.8,307.3 c 0,0 9.4,7.5 14.5,10.2 5.1,2.7 13.9,12 14.7,13.5 0.7,1.5 -0.8,7.1 0.2,9.6 1,2.6 5.4,8.8 6,9 0.7,0.2 0.7,-1.6 0.7,-1.6 0,0 0.8,0.3 1.6,-0.4 0.8,-0.7 0.7,-1.6 0.7,-1.6 0,0 1.4,0.2 1.9,-0.5 0.5,-0.7 0,-2.2 0,-2.2 0,0 1.3,0.3 2.1,-0.3 0.7,-0.7 0,-2.3 0,-2.3 0,0 2.7,-0.1 3,-1.4 0.2,-1.3 -1.4,-2.8 -1.4,-2.8 0,0 0.1,-3.5 -2.5,-7.1 -2.6,-3.5 -6.3,-4 -7.8,-6.9 -1.6,-2.9 -7.7,-13.8 -13.4,-19.2 -5.8,-5.4 -10.1,-7.5 -11,-9.1 -0.8,-1.6 -2.6,-2.6 -5.5,-1.6 -2.3,0.8 -7,0.6 -12.6,1.1 l 5.6,17 c 1.4,-1.1 2.7,-2.3 3.2,-3.4 z"
         inkscape:connector-curvature="0"
         style="fill:#ffffff" /><path
         id="XMLID_16_"
         d="m 141.9,300.7 c 0.8,-0.3 1.2,-2.1 1.2,-2.1 l -1.2,2.1 c 0,0 0,0 0,0 z"
         inkscape:connector-curvature="0"
         style="fill:#664140" /><path
         id="XMLID_15_"
         d="m 323,505.8 c 0.4,0.1 0.7,0.3 1.1,0.3 0.1,0 -0.4,-0.2 -1.1,-0.3 z"
         inkscape:connector-curvature="0"
         style="fill:#664140" /><path
         id="XMLID_13_"
         d="m 331.1,504 c 5.2,-2.4 5.4,-4.9 7.7,-7.1 0,0 -3.9,-2.9 -10,-10.2 -6.2,-7.3 -7.7,-11.9 -12.6,-18.6 -10.2,-14.1 -23.1,-19.3 -23.1,-19.3 0,0 -4.1,-21.1 -8.2,-32.2 l -37.8,10.8 c 1.9,2.5 3.4,4.6 3.4,4.6 0,0 -7.7,-4.4 -15.4,-6.3 -5.5,-1.4 -12.2,-2.2 -12.2,-2.2 2.4,-0.2 4.9,-0.9 7.3,-1.6 L 195.9,413 c 0,0 -4.9,4.7 -6.3,11.8 -1.4,7.1 3.5,12.7 7.7,14.5 4.2,1.8 14.2,4.4 30.5,5.3 16.3,0.9 22.6,0.1 25.9,1 2.6,0.7 4,1.9 4.5,2.4 0.1,-0.2 0.3,-0.4 0.4,-0.7 1.3,-2 2,-3.5 2,-3.5 0,0 17.7,19.2 21.9,22.1 1.6,1 5.5,3.5 8.3,7.1 3.7,4.5 15.6,15.2 21.4,19.1 5.8,4 11.1,12 11.9,12.8 0.8,0.8 0,1.4 0,1.4 2.7,0.3 1.8,0.1 7,-2.3 z"
         inkscape:connector-curvature="0"
         style="fill:#ffffff" /><path
         id="XMLID_11_"
         d="m 189.6,305 c 0,0 -3.4,1.3 -5.7,0.3 -2.3,-1 -2.8,-2.8 -2.8,-2.8 0,0 1.2,-0.4 -0.1,-3.2 -1.2,-2.8 -1.6,-3 -2.7,-8.2 -1.1,-5.2 -3.6,-11.8 -9.1,-14.8 -5.4,-3 -7.3,0.6 -11.1,0 -3.8,-0.6 -10.4,1.2 -15.1,10 -4.7,8.9 -3.6,14.3 -3.1,14.7 0.5,0.4 1.4,-1.6 1.4,-1.6 0,0 -0.1,1.5 0.5,1.3 l 1.3,-2.1 c 0,0 -0.6,2.8 0.7,5.9 1,2.2 3.2,2.4 3.2,4.7 0,3.2 -1.7,6 -0.8,6.6 0.8,0.6 3,0 3,0 0,0 1.2,1.7 2.8,4.5 0.8,1.4 2.9,5 4.6,5.3 2.2,0.3 5.7,-1.8 8.2,-4 3.2,-2.8 4.9,-2.5 7.7,0.1 1.5,1.4 3.5,2.9 3.5,2.9 0,0 3.4,4.3 9.6,1.1 19.4,-10.3 4,-20.7 4,-20.7 z"
         inkscape:connector-curvature="0"
         style="fill:#ffffff" /><path
         id="XMLID_10_"
         d="m 260.6,443.6 c 0,0 -0.7,1.5 -2,3.5 -0.1,0.2 -0.3,0.4 -0.4,0.7 0.1,0.1 0.2,0.2 0.2,0.2 0,0 -0.7,2.8 1.7,4.2 2.4,1.4 6.8,6.4 8.8,9.4 2.1,3 1.8,7.9 0.9,10.3 -0.9,2.4 -0.3,4.7 1.9,5 2.2,0.3 5.8,-3.5 7.5,-6 1.6,-2.6 2.5,-5.5 2.5,-5.5 0,0 0.3,0.1 0.7,0.4 -4.1,-3 -21.8,-22.2 -21.8,-22.2 z"
         inkscape:connector-curvature="0"
         style="fill:#664140" /><path
         id="XMLID_9_"
         d="m 349.1,503.3 c -2.8,-2.4 -6.3,-5.3 -7.7,-6.1 -1.4,-0.8 -2.6,-0.4 -2.6,-0.4 -2.3,2.2 -2.5,4.7 -7.7,7.1 -5.2,2.4 -4.3,2.6 -7,2.2 -0.4,-0.1 -0.8,-0.2 -1.1,-0.3 -1.1,-0.2 -2.7,-0.4 -3.5,0.8 -1.7,2.6 1.4,3.5 2.6,4.4 1.2,1 1.7,1.6 1.7,1.6 0,0 2.2,3.2 2,5.3 -0.3,3.9 -3.1,5.3 -3.1,5.3 0,0 -8.7,3.9 -9.7,6.2 -0.7,1.7 1.1,3.1 4.1,3.5 3,0.4 10,0 13.4,0 3.5,0 11.1,-8.5 12.5,-11.8 2.2,-5.3 7.8,-7.1 9,-10.4 0.9,-2.1 -0.1,-5 -2.9,-7.4 z"
         inkscape:connector-curvature="0"
         style="fill:#664140" /><path
         id="XMLID_8_"
         d="m 248.8,376.8 c 10.2,-6.9 12.7,-12.6 12.7,-12.6 0,0 -12.5,-10.7 -21.6,-21.2 -9.1,-10.5 -21.8,-22.9 -22.9,-24.2 -1.1,-1.3 -0.7,-2.7 -0.7,-2.7 0,0 6.5,-1.7 10.6,-4.6 l -6,-18.4 c -1.4,0.1 -2.9,0.9 -4.4,1.2 -7.6,1.3 -11.1,6.4 -14.9,6.8 -3.8,0.3 -8.7,-0.1 -12,4 0,0 1.2,1.7 -1.6,7.5 -2.7,5.6 -11.9,12.1 -11.9,12.1 0,0 -4.7,2.5 -6,8.6 -1.2,6.1 1.5,12.7 1.5,12.7 0,0 -2.3,2.9 -3.7,7.8 -0.7,2.4 -1.8,5.3 -2.1,7.8 l 19.5,6.8 c 1.7,-4 3.3,-9 4.4,-12.6 0,0 9.8,7 18,13 8.2,6 14.2,9.3 17.1,11.2 1.4,0.9 2.1,1.7 2.5,2.4 0,0 0,0 0,0 3.1,0 11.3,1.2 21.5,-5.6 z"
         inkscape:connector-curvature="0"
         style="fill:#df4540" /><path
         id="XMLID_7_"
         d="m 239.9,417.7 c 1.2,1.5 9.6,16.5 12.3,20 0,0 38.9,-10.9 38.6,-11.7 -3.4,-9.8 -11.4,-29 -11.6,-35.5 -0.2,-7 -2.3,-14.8 -7.9,-19.5 -5.6,-4.7 -9.8,-6.8 -9.8,-6.8 0,0 -2.5,5.7 -12.7,12.6 -10.2,6.9 -18.4,5.7 -21.5,5.5 0,0 0,0 0,0 0.5,0.8 0.5,1.4 0.5,1.4 0,0 -2.1,-0.5 -3.6,1.5 -1.5,2 -3.5,2.9 -7.1,6.1 -3.6,3.2 -14.6,13.1 -17.5,15.4 -2.9,2.3 -5.5,5.7 -5.5,5.7 l 1.8,0.5 30.5,10.9 c 9.9,-1.8 13.5,-6.1 13.5,-6.1 z"
         inkscape:connector-curvature="0"
         style="fill:#664140" /></g><path
       id="XMLID_5_"
       d="m 147.2,301.3 c 5.5,-4.3 7.6,-6.2 11.3,-4.1 2.2,1.3 5.5,8.2 6.3,6.3 1.7,-3.9 5,-2.5 6,1 2.6,9.3 6.8,1.5 12.1,0.3 0,0 -0.7,-2.7 -1.9,-5.5 -1.2,-2.8 -1.6,-3 -2.7,-8.2 -1.1,-5.2 -3.6,-11.8 -9.1,-14.8 -5.4,-3 -7.3,0.6 -11.1,0 -3.8,-0.6 -10.4,1.2 -15.1,10 -4.7,8.9 -3.6,14.3 -3.1,14.7 0.5,0.4 1.4,-1.6 1.4,-1.6 0,0 -0.1,1.5 0.5,1.3 l 1.3,-2.1 c 0.1,-0.1 -1.4,7 4.1,2.7 z"
       inkscape:connector-curvature="0"
       style="fill:#664140" /><g
       id="XMLID_2_"><polygon
         id="XMLID_4_"
         points="217.6,319.5 217.6,319.5 217.6,319.5 "
         style="fill:#664140" /><path
         id="XMLID_3_"
         d="m 216.8,318.5 c -0.8,-1.2 -0.5,-2.5 -0.5,-2.5 0,0 0.5,-0.1 1.3,-0.4 0,0 -5.2,-7.3 -10.4,-10.2 -5.2,-2.9 -10.4,-1.9 -10.4,-1.9 0,0 5.9,0.4 10.2,3.8 4,3.4 6.5,7.3 9.8,11.2 z"
         inkscape:connector-curvature="0"
         style="fill:#8f2524" /></g></g></svg>